# xmcd
#
# Track frame offsets:
#	150
#	12221
#	28759
#	47413
#	57706
#	79019
#	94595
#	118198
#	129804
#	144492
#	152852
#	169716
#	187594
#
# Disc length: 2639 seconds
#
# Revision: 1
# Processed by: cddbd v1.5.1PL2 Copyright (c) Steve Scherf et al.
# Submitted via: audiograbber 1.83.01
#
DISCID=9d0a4d0d
DTITLE=The Flatwheel Band - Clean Your Needle
DYEAR=2006
DGENRE=Country Rock
TTITLE0=Mountain
TTITLE1=Opening Band
TTITLE2=Lipstick
TTITLE3=Drinking Again
TTITLE4=Bad Luck
TTITLE5=Your Memory
TTITLE6=Nowhere
TTITLE7=This Is How It Goes
TTITLE8=Songs For Satan
TTITLE9=Little Red Waggon
TTITLE10=Heroes
TTITLE11=Waiting To Happen
TTITLE12=Ticket
EXTD=
EXTT0=
EXTT1=
EXTT2=
EXTT3=
EXTT4=
EXTT5=
EXTT6=
EXTT7=
EXTT8=
EXTT9=
EXTT10=
EXTT11=
EXTT12=
PLAYORDER=
